<svg width="30" height="30" viewBox="0 0 30 30" fill="none" xmlns="http://www.w3.org/2000/svg">
<g clip-path="url(#clip0_8_8674)">
<rect x="0.310303" y="0.088501" width="29.1892" height="29.1892" rx="14.5946" transform="rotate(-0.173721 0.310303 0.088501)" fill="#FFE75C"/>
<path d="M22.8046 29.6926C22.9098 30.114 22.9178 30.554 22.8278 30.979C22.7379 31.4042 22.5523 31.803 22.2854 32.1459C22.0185 32.4886 21.677 32.7663 21.287 32.9576C20.8969 33.149 20.4686 33.2491 20.0339 33.2504L14.0975 33.2684L11.3209 34.8336L11.3206 34.7505C10.0545 34.7544 9.32692 34.3414 9.87325 29.6903C9.62021 28.3833 8.44223 23.2392 7.78713 19.4012C7.19531 15.8951 8.49907 14.6042 12.1046 12.5591C13.6267 7.98796 17.6126 8.24572 18.3889 10.9833C19.1652 13.7208 21.7328 25.3576 22.8046 29.6926Z" fill="#66BCFF"/>
<path d="M22.8044 29.6925C22.258 27.4524 21.2906 23.304 20.3863 19.4252L15.7357 19.0865L12.1527 21.6297L10.0854 24.4173L9.0312 25.8528C9.41023 27.6367 9.72578 29.0887 9.8522 29.711C9.30587 34.3622 10.0336 34.7752 11.2998 34.7713L14.9692 33.2034L23.4776 32.5757C23.2672 31.6423 23.0357 30.6674 22.8044 29.6925Z" fill="#EB459F"/>
<path d="M13.2846 27.3846C13.5417 25.8354 13.402 24.5215 12.9721 24.4501C12.5424 24.3788 11.9856 25.5769 11.7283 27.1264C11.4711 28.6756 11.611 29.9893 12.0407 30.0606C12.4704 30.132 13.0274 28.9339 13.2846 27.3846Z" fill="black"/>
<path d="M10.5601 23.5441C10.7666 23.1699 10.994 22.7956 11.2213 22.4628C13.5565 19.0723 15.7538 18.1523 17.8709 18.1459L20.507 18.1379C20.5465 18.1388 20.5849 18.1491 20.6196 18.1677C20.6541 18.1863 20.6839 18.213 20.7062 18.2453C20.7285 18.2776 20.743 18.3147 20.7483 18.3537C20.7536 18.3927 20.7495 18.4324 20.7366 18.4693L20.3864 19.4252C16.3389 19.4375 14.9063 19.3173 11.5544 22.8561L10.0856 24.4173L10.5601 23.5441Z" fill="#D11583"/>
<path d="M11.5547 22.9806C10.1648 23.2339 9.0669 23.9638 8.4481 25.2526C8.27234 25.6101 8.01798 25.9231 7.70363 26.1681L3.97567 28.8986C3.55667 29.1979 3.26535 29.6436 3.15915 30.1475C3.05316 30.6514 3.14006 31.1767 3.40274 31.6195C3.58592 31.9303 3.84762 32.1873 4.16137 32.3648C4.47534 32.5424 4.83035 32.6343 5.19089 32.6311L6.74764 32.6264C9.9802 30.8108 11.471 29.5816 12.2368 28.8735C13.0027 28.1655 13.8499 26.8967 13.7002 25.4442C13.5505 23.9917 13.1314 22.6853 11.5547 22.9806Z" fill="white"/>
<path d="M12.6845 12.246C12.1838 11.4173 11.5163 10.3192 11.2656 9.80103C11.015 9.28287 10.4134 9.40923 11.2715 11.7314C9.19344 10.9489 8.75843 11.2409 8.65553 11.5318C8.55262 11.8227 9.00971 11.9666 9.883 12.4621C10.7563 12.9576 11.6922 13.5567 11.6922 13.5567L12.6845 12.246Z" fill="#66BCFF"/>
<path d="M14.8433 12.3017C15.1948 11.8647 15.3181 11.387 15.1101 11.2215C14.902 11.0561 14.6737 11.1398 14.3636 11.5559C14.2299 11.7251 14.0848 11.8851 13.9292 12.0346C13.5773 12.3678 13.6611 12.6166 13.8276 12.7614C13.9941 12.9062 14.4918 12.7387 14.8433 12.3017Z" fill="black"/>
<path d="M18.3682 11.0041C18.3682 11.0041 15.8947 9.89069 14.8341 9.20893C13.7734 8.52717 13.2306 7.51173 13.7072 7.24045C14.1838 6.96917 15.0993 7.60985 15.7452 8.43817C15.72 6.96451 15.9682 6.65242 16.3625 6.63047C16.7568 6.60852 16.7999 7.18956 16.8231 8.01976C16.8464 8.84997 16.9929 9.18163 17.6173 9.74017C17.9911 10.0747 18.2532 10.5158 18.3682 11.0041Z" fill="#3442D9"/>
<path d="M9.31866 17.9228C8.73747 17.9245 8.2378 17.4279 8.6918 16.5547C9.14581 15.6816 10.6374 14.8053 11.3629 14.471C12.0884 14.1366 12.4217 14.4677 12.4432 14.7168C12.4647 14.9658 12.3619 15.3397 11.845 16.0055C11.3281 16.6713 10.3772 17.9196 9.31866 17.9228Z" fill="white"/>
<path d="M9.77494 17.8591L9.42248 17.9225L8.91916 16.2219L9.2088 15.9097L9.77494 17.8591Z" fill="#8CD9FF"/>
<path d="M11.059 16.9419L10.7695 17.2334L10.1818 15.1387L10.4925 14.9302L11.059 16.9419Z" fill="#8CD9FF"/>
<path d="M12.2172 15.4855L11.9483 15.8599L11.5288 14.4082L11.8814 14.3448L12.2172 15.4855Z" fill="#8CD9FF"/>
<path d="M11.7563 14.1584C12.1411 14.3407 12.5368 14.4992 12.9411 14.6322" stroke="black" stroke-linecap="round" stroke-linejoin="round"/>
<path d="M21.0382 22.1631C20.6399 21.8493 20.1526 21.6691 19.6461 21.6484C18.5668 21.6517 17.968 22.7121 17.7635 23.7298C17.7306 23.8931 17.6429 24.0399 17.5147 24.1461C17.3865 24.2524 17.2258 24.3112 17.0596 24.3132L16.9143 24.3136C16.8206 24.2967 16.7313 24.261 16.6518 24.2085C16.5721 24.1563 16.5041 24.0884 16.4515 24.009C16.399 23.9297 16.3628 23.8406 16.3457 23.747C16.3284 23.6532 16.3304 23.5571 16.3513 23.4643C16.7397 21.4912 18.0227 20.2211 19.6418 20.2162C19.9095 20.2187 20.1687 20.3122 20.3767 20.4813C20.5846 20.6503 20.729 20.885 20.7862 21.1468L21.0382 22.1631Z" fill="white"/>
<path d="M22.8046 29.6925C22.8511 29.878 22.8591 30.071 22.8286 30.2595C22.798 30.4483 22.7296 30.6289 22.6272 30.7903C22.5247 30.9517 22.3906 31.0905 22.233 31.1985C22.0753 31.3067 21.8973 31.3816 21.7099 31.4187L21.1912 31.4618C20.008 31.4653 18.781 30.7633 17.8225 29.5416C17.7652 29.4654 17.7232 29.3787 17.6993 29.2864C17.6753 29.1939 17.6699 29.0978 17.6831 29.0034C17.6963 28.9089 17.728 28.8179 17.7763 28.7357C17.8246 28.6534 17.8887 28.5816 17.9649 28.5241C18.0399 28.4638 18.1265 28.4196 18.2192 28.394C18.3119 28.3686 18.4091 28.3623 18.5044 28.3755C18.5997 28.3889 18.6911 28.4214 18.7735 28.4716C18.8556 28.5216 18.9268 28.5878 18.9823 28.6663C19.649 29.5153 20.4603 30.0317 21.1868 30.0295C21.9133 30.0273 22.3479 29.6109 22.6576 29.0703C22.6999 29.2985 22.7625 29.5058 22.8046 29.6925Z" fill="#2331B5"/>
<path d="M21.3959 23.7603C21.2493 23.7616 21.1069 23.8083 20.988 23.8942C20.8693 23.9801 20.7802 24.101 20.7331 24.2398L19.8685 26.5879C19.7929 26.8084 19.7953 27.0481 19.8753 27.267C19.9554 27.486 20.1082 27.6707 20.308 27.7905C20.3985 27.8456 20.5003 27.88 20.6055 27.8904C20.711 27.9011 20.8175 27.8877 20.9172 27.8515C21.0167 27.8153 21.1068 27.7571 21.1809 27.6813C21.255 27.6056 21.311 27.5141 21.3447 27.4137L21.9007 25.8968C21.7534 25.2122 21.585 24.507 21.3959 23.7603Z" fill="#5865F2"/>
<path d="M20.3079 27.7904C20.1081 27.6706 19.9554 27.486 19.8752 27.267C19.7952 27.0481 19.7929 26.8083 19.8684 26.5879L20.1155 25.9437C20.1569 25.8312 20.2222 25.7291 20.3066 25.6442C20.3912 25.5594 20.4931 25.494 20.6053 25.4521C20.7177 25.4105 20.8376 25.3935 20.9572 25.4025C21.0766 25.4114 21.1927 25.4462 21.2973 25.5042C21.4684 25.6035 21.5997 25.759 21.6683 25.9445C21.737 26.1299 21.739 26.3333 21.674 26.5201L21.3446 27.4137C21.3109 27.514 21.2549 27.6055 21.1808 27.6813C21.1067 27.7571 21.0166 27.8153 20.9171 27.8515C20.8174 27.8877 20.7109 27.9011 20.6055 27.8904C20.5002 27.8799 20.3984 27.8458 20.3079 27.7904Z" fill="#FFE75C"/>
</g>
<defs>
<clipPath id="clip0_8_8674">
<rect x="0.310303" y="0.088501" width="29.1892" height="29.1892" rx="14.5946" transform="rotate(-0.173721 0.310303 0.088501)" fill="white"/>
</clipPath>
</defs>
</svg>
