<svg width="30" height="30" viewBox="0 0 30 30" fill="none" xmlns="http://www.w3.org/2000/svg">
<g clip-path="url(#clip0_8_8350)">
<rect x="0.504395" y="0.786804" width="29.1892" height="29.1892" rx="14.5946" transform="rotate(-0.173721 0.504395 0.786804)" fill="url(#paint0_linear_8_8350)"/>
<path d="M27.0187 12.372C28.5294 6.55434 29.2608 5.52114 32.7967 13.0094L27.0187 12.372Z" fill="#D4E1FF"/>
<path d="M12.5857 24.835L12.447 24.9552C14.5568 26.9328 17.7689 32.021 22.6305 31.7491C22.6305 31.7491 26.5825 38.9186 30.8085 38.1127C35.0344 37.306 38.1519 31.3444 38.1519 31.3444C39.2907 29.2867 40.0947 27.0608 40.5338 24.7503C40.4727 24.2153 40.2729 23.7988 39.8953 23.542C36.8718 21.5479 14.7842 23.222 12.5857 24.835Z" fill="#1C1B29"/>
<path d="M18.9528 10.095L23.3825 11.2716C24.6978 10.7046 26.1165 10.4168 27.5488 10.4265C34.2972 10.406 37.9066 15.8707 37.927 22.5957C37.9473 29.3216 34.3712 34.808 27.6228 34.8284C20.8737 34.8489 17.2844 29.3842 17.264 22.6584C17.257 21.668 17.3335 20.6788 17.4929 19.7013C17.9423 17.1205 17.8129 14.4707 17.1118 11.9456C17.0436 11.6903 17.0435 11.4216 17.1117 11.1663C17.1798 10.911 17.3137 10.6781 17.5001 10.4908C17.6864 10.3035 17.9187 10.1683 18.1736 10.0989C18.4285 10.0294 18.6972 10.0281 18.9528 10.095Z" fill="#B3CAFF"/>
<path d="M37.6978 25.5134C34.4269 26.9714 31.0481 25.4532 27.7872 23.5988C24.2276 21.5661 21.929 16.3948 20.9516 14.7513C19.9743 13.1069 18.5832 12.7945 17.6237 10.3972C17.397 10.5775 17.228 10.8201 17.1372 11.0951C17.0463 11.3702 17.0378 11.6657 17.1125 11.9456C17.8131 14.4709 17.943 17.1204 17.4928 19.7021C17.3335 20.6794 17.2569 21.6683 17.2639 22.6584C17.2843 29.3842 20.8936 34.8489 27.6227 34.8285C33.3594 34.8111 36.8011 30.8326 37.6978 25.5126L37.6978 25.5134Z" fill="#8DAEF7"/>
<path d="M37.0964 23.5103C37.1122 28.748 34.0089 33.0035 30.1775 33.0151C26.3469 33.0267 23.237 28.7901 23.2212 23.5524C23.1949 14.9028 28.5955 21.9691 32.4269 21.9575C36.2575 21.9459 37.1727 16.0907 37.0964 23.5103Z" fill="#FCFDFF"/>
<path d="M30.279 28.5814C30.651 28.549 30.9081 28.0275 30.8557 27.4161C30.8024 26.8047 30.4578 26.3357 30.0867 26.3674C29.7155 26.4006 29.4575 26.9221 29.5108 27.5327C29.5641 28.144 29.9079 28.6139 30.279 28.5814ZM34.8362 27.5543C34.9452 26.9505 34.7363 26.4071 34.3688 26.3415C34.0022 26.2751 33.6162 26.711 33.5071 27.3148C33.3989 27.9179 33.6079 28.4612 33.9745 28.5276C34.3411 28.594 34.7271 28.1581 34.8362 27.5543Z" fill="#1C1B29"/>
<path d="M50.355 88.583C47.5378 89.187 39.0776 81.1777 39.0776 81.1777C41.4221 88.471 41.8257 90.6523 42.2283 92.5355C42.631 94.4195 42.3935 94.7971 42.2392 96.1266C42.0841 97.4562 42.084 97.4169 42.883 99.081C43.682 100.744 44.2022 101.914 44.3631 102.767C44.4241 103.262 44.4055 103.764 44.3081 104.254L8.83706 104.362C8.83706 104.362 8.65546 103.569 9.40333 101.364C10.1512 99.1602 11.8725 97.3301 12.8206 95.9378C13.7694 94.5463 13.7103 94.6855 13.4506 94.111C12.2512 91.2973 14.1784 91.907 14.9796 87.6785C15.78 83.4501 15.9777 63.2926 17.7583 55.0546C19.5398 46.8158 22.2933 44.8628 22.4712 38.0576C19.1068 34.9338 10.7651 26.8044 12.447 24.9543C14.3577 26.7341 20.0769 27.5902 24.7415 27.5367C25.1507 27.5296 25.5517 27.6517 25.8874 27.8857C26.2231 28.1197 26.4765 28.4537 26.6114 28.8401C27.4126 31.2379 29.4319 35.9737 32.5864 35.3486C35.741 34.7243 38.0655 29.0826 38.715 27.0371C38.8519 26.5906 39.1377 26.2046 39.5249 25.9434C39.9473 25.6277 40.2923 25.2199 40.5338 24.751C40.9828 28.6575 34.5229 39.0327 34.5229 39.0327C34.5229 39.0327 36.1735 53.0742 39.4034 57.6866C42.6325 62.2998 51.6646 62.2724 51.8957 66.6761C52.1276 71.079 53.152 87.979 50.355 88.583Z" fill="#BD4070"/>
<path d="M22.9008 29.2081C20.558 29.0762 17.4012 28.6888 12.3319 26.1849C13.1541 29.138 19.6249 35.3879 22.4713 38.0576C22.4348 40.1683 22.0591 42.2594 21.3586 44.2509C23.9298 47.8736 27.0196 45.5033 27.6065 55.6989C27.8576 60.0431 31.0709 65.8062 34.4246 72.0455C37.7784 78.2847 38.2 66.7963 38.0438 61.1429C37.9549 58.0678 37.3287 54.2608 36.6619 50.6323C35.2366 45.1409 34.523 39.0327 34.523 39.0327C34.523 39.0327 39.0468 31.7579 40.263 27.112C39.9534 27.3057 39.7116 27.5909 39.5711 27.9273C38.3481 30.7071 36.9782 33.4199 35.467 36.0542C33.9065 38.6979 30.9927 40.0157 27.622 34.8284C24.2522 29.6403 25.4221 29.3595 22.9008 29.2081Z" fill="#A12C66"/>
<path d="M24.3403 19.4829C27.8393 21.1582 29.0568 23.2977 31.8554 23.2096C34.654 23.1216 35.7411 21.7691 36.8671 19.9608C36.4076 18.9698 35.1663 21.9492 32.4269 21.9575C29.6876 21.9658 26.1038 18.3068 24.3403 19.4829Z" fill="#8DAEF7"/>
</g>
<defs>
<linearGradient id="paint0_linear_8_8350" x1="15.099" y1="30.1084" x2="15.099" y2="9.20007" gradientUnits="userSpaceOnUse">
<stop stop-color="#7196FF"/>
<stop offset="1" stop-color="#2A5EE8"/>
</linearGradient>
<clipPath id="clip0_8_8350">
<rect x="0.504395" y="0.786804" width="29.1892" height="29.1892" rx="14.5946" transform="rotate(-0.173721 0.504395 0.786804)" fill="white"/>
</clipPath>
</defs>
</svg>
