<svg width="28" height="28" viewBox="0 0 28 28" fill="none" xmlns="http://www.w3.org/2000/svg">
<g clip-path="url(#clip0_2_7239)">
<path d="M7.12487 0.250122C6.58242 0.250122 6.1427 0.689842 6.1427 1.23228V3.19655H8.10697V1.23228C8.10697 0.689842 7.66725 0.250122 7.12487 0.250122Z" fill="white"/>
<path d="M20.8749 0.250122C20.3324 0.250122 19.8927 0.689842 19.8927 1.23228V3.19655H21.857V1.23228C21.857 0.689842 21.4173 0.250122 20.8749 0.250122Z" fill="white"/>
<path d="M24.8035 3.19656H21.857V7.12515C21.857 7.6676 21.4173 8.10732 20.8749 8.10732C20.3324 8.10732 19.8927 7.6676 19.8927 7.12515V3.19656H8.107V7.12515C8.107 7.6676 7.66728 8.10732 7.12484 8.10732C6.58239 8.10732 6.14267 7.6676 6.14267 7.12515V3.19656H3.1963C1.56904 3.19656 0.249878 4.51572 0.249878 6.14299V24.8037C0.249878 26.431 1.56904 27.7502 3.1963 27.7502H24.8035C26.4307 27.7502 27.7499 26.431 27.7499 24.8037V6.14299C27.7499 4.51572 26.4307 3.19656 24.8035 3.19656ZM25.7856 24.8037C25.7856 25.3462 25.3458 25.7859 24.8034 25.7859H3.1963C2.65386 25.7859 2.21414 25.3462 2.21414 24.8037V12.0358H25.7856V24.8037Z" fill="white"/>
<path d="M8.10695 14.0001H6.14269C5.60024 14.0001 5.16052 14.4398 5.16052 14.9823C5.16052 15.5247 5.60024 15.9644 6.14269 15.9644H8.10695C8.6494 15.9644 9.08912 15.5247 9.08912 14.9823C9.08912 14.4398 8.6494 14.0001 8.10695 14.0001Z" fill="white"/>
<path d="M14.9821 14.0001H13.0178C12.4754 14.0001 12.0356 14.4398 12.0356 14.9823C12.0356 15.5247 12.4754 15.9644 13.0178 15.9644H14.9821C15.5245 15.9644 15.9642 15.5247 15.9642 14.9823C15.9642 14.4398 15.5245 14.0001 14.9821 14.0001Z" fill="white"/>
<path d="M21.8571 14.0001H19.8928C19.3504 14.0001 18.9106 14.4398 18.9106 14.9823C18.9106 15.5247 19.3504 15.9644 19.8928 15.9644H21.8571C22.3995 15.9644 22.8392 15.5247 22.8392 14.9823C22.8392 14.4398 22.3995 14.0001 21.8571 14.0001Z" fill="white"/>
<path d="M8.10695 17.9287H6.14269C5.60024 17.9287 5.16052 18.3684 5.16052 18.9108C5.16052 19.4533 5.60024 19.893 6.14269 19.893H8.10695C8.6494 19.893 9.08912 19.4533 9.08912 18.9108C9.08912 18.3684 8.6494 17.9287 8.10695 17.9287Z" fill="white"/>
<path d="M14.9821 17.9287H13.0178C12.4754 17.9287 12.0356 18.3684 12.0356 18.9108C12.0356 19.4533 12.4754 19.893 13.0178 19.893H14.9821C15.5245 19.893 15.9642 19.4533 15.9642 18.9108C15.9642 18.3684 15.5245 17.9287 14.9821 17.9287Z" fill="white"/>
<path d="M21.8571 17.9287H19.8928C19.3504 17.9287 18.9106 18.3684 18.9106 18.9108C18.9106 19.4533 19.3504 19.893 19.8928 19.893H21.8571C22.3995 19.893 22.8392 19.4533 22.8392 18.9108C22.8392 18.3684 22.3995 17.9287 21.8571 17.9287Z" fill="white"/>
<path d="M8.10695 21.8572H6.14269C5.60024 21.8572 5.16052 22.297 5.16052 22.8394C5.16052 23.3818 5.60024 23.8215 6.14269 23.8215H8.10695C8.6494 23.8215 9.08912 23.3818 9.08912 22.8393C9.08912 22.2969 8.6494 21.8572 8.10695 21.8572Z" fill="white"/>
<path d="M14.9821 21.8572H13.0178C12.4754 21.8572 12.0356 22.297 12.0356 22.8394C12.0356 23.3818 12.4754 23.8216 13.0178 23.8216H14.9821C15.5245 23.8216 15.9642 23.3818 15.9642 22.8394C15.9642 22.297 15.5245 21.8572 14.9821 21.8572Z" fill="white"/>
<path d="M21.8571 21.8572H19.8928C19.3504 21.8572 18.9106 22.297 18.9106 22.8394C18.9106 23.3818 19.3504 23.8216 19.8928 23.8216H21.8571C22.3995 23.8216 22.8392 23.3818 22.8392 22.8394C22.8392 22.297 22.3995 21.8572 21.8571 21.8572Z" fill="white"/>
</g>
<defs>
<clipPath id="clip0_2_7239">
<rect width="27.5" height="27.5" fill="white" transform="translate(0.249878 0.250122)"/>
</clipPath>
</defs>
</svg>
