<svg width="63" height="39" viewBox="0 0 63 39" fill="none" xmlns="http://www.w3.org/2000/svg">
<path d="M54.0087 35.4592L54.0087 19.5947C54.0087 19.5947 41.7705 21.1551 31.2334 26.3803C20.6962 21.1551 8.45805 19.5947 8.45805 19.5947L8.45805 35.4592C4.86693 36.2631 1.96095 37.2325 2.41136e-09 38.3437C6.61524 36.2631 18.121 34.8682 31.2097 34.8682C44.2985 34.8682 55.8043 36.2395 62.4195 38.3437C60.4822 37.2325 57.5998 36.2631 54.0087 35.4592Z" fill="#0B7077"/>
<path d="M11.7894 17.8923L11.7894 20.1384C16.1365 20.9659 24.0748 22.8101 31.2334 26.3802C22.7754 19.7364 11.7894 17.8923 11.7894 17.8923Z" fill="#0B7077"/>
<path d="M50.701 17.8923C50.701 17.8923 39.715 19.7364 31.257 26.3802C38.4156 22.8337 46.3539 20.9659 50.701 20.1384L50.701 17.8923Z" fill="#0B7077"/>
<path d="M31.257 18.105C30.8081 19.098 30.123 19.9728 29.3197 20.6584L31.2334 23.9921L33.1943 20.6584C32.3674 19.9728 31.7059 19.098 31.257 18.105Z" fill="#0B7077"/>
<path d="M25.4452 15.6226C26.721 15.6226 27.7841 14.5823 27.7841 13.2819C27.7841 12.0052 26.7446 10.9412 25.4452 10.9412C24.1694 10.9412 23.1062 11.9815 23.1062 13.2819C23.1062 14.5823 24.1457 15.6226 25.4452 15.6226ZM24.6655 11.6505C25.1617 11.6505 25.5633 12.0525 25.5633 12.549C25.5633 13.0455 25.1617 13.4474 24.6655 13.4474C24.1694 13.4474 23.7677 13.0455 23.7677 12.549C23.7677 12.0525 24.1694 11.6505 24.6655 11.6505Z" fill="#0B7077"/>
<path d="M34.7064 13.2819C34.7064 14.5586 35.746 15.6226 37.0218 15.6226C38.2975 15.6226 39.3607 14.5823 39.3607 13.2819C39.3607 12.0052 38.3212 10.9412 37.0218 10.9412C35.7696 10.9649 34.7064 12.0052 34.7064 13.2819ZM37.3053 12.549C37.3053 13.0455 36.9036 13.4474 36.4075 13.4474C35.9113 13.4474 35.5097 13.0455 35.5097 12.549C35.5097 12.0525 35.9113 11.6505 36.4075 11.6505C36.9036 11.6505 37.3053 12.0525 37.3053 12.549Z" fill="#0B7077"/>
<path d="M20.9798 17.8686C22.1375 19.0035 23.7204 19.6891 25.4451 19.6891C27.9967 19.6891 30.2175 18.176 31.257 16.0008C32.2729 18.176 34.4938 19.6891 37.069 19.6891C38.8173 19.6891 40.3766 18.9798 41.5343 17.8686C42.0304 18.5779 42.4557 19.3345 42.8101 20.1147C44.2513 19.5709 45.5743 19.169 46.732 18.838C45.9759 17.2775 44.7946 15.8826 43.3062 14.7004C43.4007 14.2512 43.4716 13.7547 43.4716 13.2818C43.4716 12.3361 43.259 11.4377 42.8809 10.6101C42.4321 9.28613 41.7469 8.05668 40.8728 6.9691L40.8255 0.656372L35.5806 3.11526C34.2103 2.59511 32.7455 2.33504 31.257 2.33504C29.7686 2.33504 28.3038 2.59511 26.9335 3.11526L21.6649 0.656372L21.6177 6.9691C20.7672 8.05668 20.082 9.26249 19.6331 10.5629C19.2551 11.3904 19.0188 12.3125 19.0188 13.2818C19.0188 13.7783 19.0661 14.2512 19.1842 14.7004C17.6958 15.8826 16.5381 17.2775 15.7821 18.838C16.9161 19.169 18.2628 19.5946 19.704 20.1147C20.0584 19.3345 20.4836 18.5779 20.9798 17.8686ZM42.1013 13.2818C42.1013 16.0717 39.8332 18.3415 37.0454 18.3415C34.2575 18.3415 31.9894 16.0717 31.9894 13.2818C31.9894 10.4919 34.2575 8.22219 37.0454 8.22219C39.8332 8.24583 42.1013 10.5156 42.1013 13.2818ZM31.2334 3.6827C34.4465 3.6827 37.3761 5.07764 39.3843 7.32375C38.6519 7.04003 37.8486 6.87453 37.0217 6.87453C34.4701 6.87453 32.2493 8.38769 31.2098 10.5629C30.1939 8.38769 27.973 6.87453 25.3978 6.87453C24.5709 6.87453 23.7676 7.04003 23.0589 7.32375C25.1143 5.07764 28.0203 3.6827 31.2334 3.6827ZM25.4451 8.24583C28.2329 8.24583 30.501 10.5156 30.501 13.3055C30.501 16.0954 28.2329 18.3651 25.4451 18.3651C22.6572 18.3651 20.3891 16.0954 20.3891 13.3055C20.3891 10.5156 22.6572 8.24583 25.4451 8.24583Z" fill="#0B7077"/>
</svg>
