<svg width="99" height="22" viewBox="0 0 99 22" fill="none" xmlns="http://www.w3.org/2000/svg">
<path d="M11.1742 2.22665L13.8628 7.67339L19.8751 8.55217L15.5247 12.7895L16.5514 18.7757L11.1742 15.9479L5.79711 18.7757L6.82381 12.7895L2.47339 8.55217L8.48568 7.67339L11.1742 2.22665Z" fill="#161618"/>
<path d="M30.3161 2.22672L33.0047 7.67345L39.0169 8.55224L34.6665 12.7896L35.6932 18.7757L30.3161 15.948L24.939 18.7757L25.9657 12.7896L21.6152 8.55224L27.6275 7.67345L30.3161 2.22672Z" fill="#161618"/>
<path d="M49.4582 2.22672L52.1467 7.67345L58.159 8.55224L53.8086 12.7896L54.8353 18.7757L49.4582 15.948L44.081 18.7757L45.1078 12.7896L40.7573 8.55224L46.7696 7.67345L49.4582 2.22672Z" fill="#161618"/>
<path d="M68.5999 2.22672L71.2885 7.67345L77.3008 8.55224L72.9503 12.7896L73.977 18.7757L68.5999 15.948L63.2228 18.7757L64.2495 12.7896L59.899 8.55224L65.9113 7.67345L68.5999 2.22672Z" fill="#161618"/>
<path d="M87.7417 2.71815L90.2353 7.76973C90.2669 7.83386 90.3281 7.87834 90.3988 7.88868L95.9753 8.70376L91.9404 12.6337C91.8891 12.6837 91.8657 12.7557 91.8778 12.8263L92.83 18.378L87.843 15.7554C87.7796 15.7221 87.7039 15.7221 87.6405 15.7554L82.6535 18.378L83.6057 12.8263C83.6178 12.7557 83.5944 12.6837 83.5431 12.6337L79.5082 8.70376L85.0846 7.88868C85.1554 7.87834 85.2166 7.83386 85.2482 7.76973L87.7417 2.71815Z" stroke="#161618" stroke-width="0.435043" stroke-linecap="round" stroke-linejoin="round"/>
<path d="M87.7417 15.948L87.7417 2.22672L85.0532 7.67345L79.0409 8.55224L83.3913 12.7896L82.3646 18.7757L87.7417 15.948Z" fill="#161618"/>
</svg>
